<?xml version="1.0" ?><svg xmlns="http://www.w3.org/2000/svg" xmlns:xlink="http://www.w3.org/1999/xlink" version="1.1" viewBox="0 0 512 512" style="enable-background:new 0 0 512 512;" xml:space="preserve"><g id="_x32_2_x2C__Newtons_Cradle_x2C__physics_x2C__pendulum_x2C__science_x2C__chemistry_x2C__reaction_x2C__laboratory_x2C__education"><g><g><path style="fill:#5596FB;" d="M291,152.266V61c0-5.522-4.478-10-10-10s-10,4.478-10,10v91.266     c-7.861,2.031-14.785,6.404-20,12.319c-5.215-5.915-12.139-10.288-20-12.319V61c0-5.522-4.478-10-10-10s-10,4.478-10,10v91.266     c-7.861,2.031-14.785,6.404-20,12.319c-5.215-5.915-12.139-10.288-20-12.319V61c0-5.522-4.478-10-10-10s-10,4.478-10,10v91.266     c-17.233,4.452-30,20.13-30,38.734c0,22.056,17.944,40,40,40c11.938,0,22.665-5.264,30-13.585c15.986,18.134,44.05,18.093,60,0     c7.335,8.321,18.062,13.585,30,13.585c22.056,0,40-17.944,40-40C321,172.396,308.233,156.718,291,152.266z M161,211     c-11.028,0-20-8.972-20-20s8.972-20,20-20s20,8.972,20,20S172.028,211,161,211z M221,211c-11.028,0-20-8.972-20-20     s8.972-20,20-20s20,8.972,20,20S232.028,211,221,211z M281,211c-11.028,0-20-8.972-20-20s8.972-20,20-20s20,8.972,20,20     S292.028,211,281,211z"/><path style="fill:#5596FB;" d="M427.92,165.618c-7.333-17.605-25.407-26.717-42.593-24.225L350.23,57.154     c-2.123-5.099-7.978-7.514-13.076-5.385c-5.099,2.124-7.509,7.979-5.385,13.076l35.1,84.247     c-14.195,10.737-19.951,30.119-12.795,47.292c8.493,20.39,31.888,30.051,52.307,21.539     C426.74,209.441,436.402,185.978,427.92,165.618z M398.688,199.463c-10.206,4.25-21.901-0.565-26.153-10.77     c-4.241-10.18,0.59-21.913,10.77-26.153c10.157-4.234,21.904,0.568,26.154,10.77C413.7,183.489,408.868,195.222,398.688,199.463z     "/></g><g><path style="fill:#283954;" d="M486,71c13.785,0,25-11.215,25-25V26c0-13.785-11.215-25-25-25H26C12.215,1,1,12.215,1,26v20     c0,13.785,11.215,25,25,25h15v320.503C29.603,393.826,21,403.927,21,416v25.503C9.603,443.826,1,453.927,1,466v20     c0,13.785,11.215,25,25,25h460c13.785,0,25-11.215,25-25v-20c0-12.073-8.603-22.174-20-24.497V416     c0-12.073-8.603-22.174-20-24.497V71H486z M21,46V26c0-2.757,2.243-5,5-5h460c2.757,0,5,2.243,5,5v20c0,2.757-2.243,5-5,5     c-21.527,0-415.817,0-435,0H26C23.243,51,21,48.757,21,46z M101,391V71h310v320H101z M81,71v320H61V71H81z M41,416     c0-2.757,2.243-5,5-5c6.091,0,412.239,0,420,0c2.757,0,5,2.243,5,5v25H41V416z M491,486c0,2.757-2.243,5-5,5H26     c-2.757,0-5-2.243-5-5v-20c0-2.757,2.243-5,5-5c24.152,0,436.541,0,460,0c2.757,0,5,2.243,5,5V486z M451,391h-20V71h20V391z"/></g></g></g><g id="Layer_1"/></svg>